<mxfile host="app.diagrams.net" agent="Mozilla/5.0 (Macintosh; Intel Mac OS X 10_15_7) AppleWebKit/537.36 (KHTML, like Gecko) Chrome/138.0.0.0 Safari/537.36" version="27.2.0">
  <diagram name="第 1 页" id="x2HQIBuWN_DXDcJAOpfA">
    <mxGraphModel dx="1234" dy="770" grid="1" gridSize="10" guides="1" tooltips="1" connect="1" arrows="1" fold="1" page="1" pageScale="1" pageWidth="827" pageHeight="1169" math="0" shadow="0">
      <root>
        <mxCell id="0" />
        <mxCell id="1" parent="0" />
        <mxCell id="fp8gLEPbRJbHIMnl9QE7-6" style="edgeStyle=orthogonalEdgeStyle;rounded=0;sketch=1;hachureGap=4;jiggle=2;curveFitting=1;orthogonalLoop=1;jettySize=auto;html=1;entryX=0.5;entryY=0;entryDx=0;entryDy=0;fontFamily=Architects Daughter;fontSource=https%3A%2F%2Ffonts.googleapis.com%2Fcss%3Ffamily%3DArchitects%2BDaughter;" edge="1" parent="1" source="_lMbOpvktkfvWd-yMCYD-2" target="fp8gLEPbRJbHIMnl9QE7-1">
          <mxGeometry relative="1" as="geometry" />
        </mxCell>
        <mxCell id="_lMbOpvktkfvWd-yMCYD-2" value="&lt;font style=&quot;font-size: 16px;&quot;&gt;游戏内容源&lt;/font&gt;" style="rounded=1;whiteSpace=wrap;html=1;sketch=1;hachureGap=4;jiggle=2;curveFitting=1;fontFamily=Architects Daughter;fontSource=https%3A%2F%2Ffonts.googleapis.com%2Fcss%3Ffamily%3DArchitects%2BDaughter;fillColor=#d5e8d4;strokeColor=#82b366;" parent="1" vertex="1">
          <mxGeometry x="140" y="90" width="120" height="60" as="geometry" />
        </mxCell>
        <mxCell id="fp8gLEPbRJbHIMnl9QE7-1" value="&lt;font style=&quot;font-size: 16px;&quot;&gt;搜索和爬取&lt;/font&gt;" style="rounded=1;whiteSpace=wrap;html=1;sketch=1;hachureGap=4;jiggle=2;curveFitting=1;fontFamily=Architects Daughter;fontSource=https%3A%2F%2Ffonts.googleapis.com%2Fcss%3Ffamily%3DArchitects%2BDaughter;fillColor=#d5e8d4;strokeColor=#82b366;" vertex="1" parent="1">
          <mxGeometry x="140" y="240" width="120" height="60" as="geometry" />
        </mxCell>
        <mxCell id="fp8gLEPbRJbHIMnl9QE7-2" value="" style="endArrow=classic;html=1;rounded=0;sketch=1;hachureGap=4;jiggle=2;curveFitting=1;fontFamily=Architects Daughter;fontSource=https%3A%2F%2Ffonts.googleapis.com%2Fcss%3Ffamily%3DArchitects%2BDaughter;" edge="1" parent="1">
          <mxGeometry width="50" height="50" relative="1" as="geometry">
            <mxPoint x="260" y="269.5" as="sourcePoint" />
            <mxPoint x="380" y="269.5" as="targetPoint" />
          </mxGeometry>
        </mxCell>
        <mxCell id="fp8gLEPbRJbHIMnl9QE7-3" value="&lt;b&gt;初步过滤&lt;/b&gt;" style="edgeLabel;html=1;align=center;verticalAlign=middle;resizable=0;points=[];sketch=1;hachureGap=4;jiggle=2;curveFitting=1;fontFamily=Architects Daughter;fontSource=https%3A%2F%2Ffonts.googleapis.com%2Fcss%3Ffamily%3DArchitects%2BDaughter;" vertex="1" connectable="0" parent="fp8gLEPbRJbHIMnl9QE7-2">
          <mxGeometry x="0.1" y="-1" relative="1" as="geometry">
            <mxPoint y="1" as="offset" />
          </mxGeometry>
        </mxCell>
        <mxCell id="fp8gLEPbRJbHIMnl9QE7-4" value="&lt;font style=&quot;font-size: 16px;&quot;&gt;内容理解&lt;/font&gt;" style="rounded=1;whiteSpace=wrap;html=1;sketch=1;hachureGap=4;jiggle=2;curveFitting=1;fontFamily=Architects Daughter;fontSource=https%3A%2F%2Ffonts.googleapis.com%2Fcss%3Ffamily%3DArchitects%2BDaughter;fillColor=#d5e8d4;strokeColor=#82b366;" vertex="1" parent="1">
          <mxGeometry x="380" y="240" width="120" height="60" as="geometry" />
        </mxCell>
        <mxCell id="fp8gLEPbRJbHIMnl9QE7-11" style="edgeStyle=orthogonalEdgeStyle;rounded=0;sketch=1;hachureGap=4;jiggle=2;curveFitting=1;orthogonalLoop=1;jettySize=auto;html=1;fontFamily=Architects Daughter;fontSource=https%3A%2F%2Ffonts.googleapis.com%2Fcss%3Ffamily%3DArchitects%2BDaughter;" edge="1" parent="1" source="fp8gLEPbRJbHIMnl9QE7-5" target="fp8gLEPbRJbHIMnl9QE7-10">
          <mxGeometry relative="1" as="geometry" />
        </mxCell>
        <mxCell id="fp8gLEPbRJbHIMnl9QE7-12" value="&lt;font style=&quot;font-size: 15px;&quot;&gt;&lt;b&gt;内容&lt;/b&gt;&lt;/font&gt;" style="edgeLabel;html=1;align=center;verticalAlign=middle;resizable=0;points=[];sketch=1;hachureGap=4;jiggle=2;curveFitting=1;fontFamily=Architects Daughter;fontSource=https%3A%2F%2Ffonts.googleapis.com%2Fcss%3Ffamily%3DArchitects%2BDaughter;" vertex="1" connectable="0" parent="fp8gLEPbRJbHIMnl9QE7-11">
          <mxGeometry x="-0.1818" y="1" relative="1" as="geometry">
            <mxPoint as="offset" />
          </mxGeometry>
        </mxCell>
        <mxCell id="fp8gLEPbRJbHIMnl9QE7-5" value="&lt;span style=&quot;font-size: 16px;&quot;&gt;内容入库&lt;/span&gt;" style="rounded=1;whiteSpace=wrap;html=1;sketch=1;hachureGap=4;jiggle=2;curveFitting=1;fontFamily=Architects Daughter;fontSource=https%3A%2F%2Ffonts.googleapis.com%2Fcss%3Ffamily%3DArchitects%2BDaughter;fillColor=#d5e8d4;strokeColor=#82b366;" vertex="1" parent="1">
          <mxGeometry x="610" y="240" width="150" height="60" as="geometry" />
        </mxCell>
        <mxCell id="fp8gLEPbRJbHIMnl9QE7-7" value="" style="endArrow=classic;html=1;rounded=0;sketch=1;hachureGap=4;jiggle=2;curveFitting=1;fontFamily=Architects Daughter;fontSource=https%3A%2F%2Ffonts.googleapis.com%2Fcss%3Ffamily%3DArchitects%2BDaughter;" edge="1" parent="1">
          <mxGeometry width="50" height="50" relative="1" as="geometry">
            <mxPoint x="490" y="269.5" as="sourcePoint" />
            <mxPoint x="610" y="269.5" as="targetPoint" />
          </mxGeometry>
        </mxCell>
        <mxCell id="fp8gLEPbRJbHIMnl9QE7-13" style="edgeStyle=orthogonalEdgeStyle;rounded=0;sketch=1;hachureGap=4;jiggle=2;curveFitting=1;orthogonalLoop=1;jettySize=auto;html=1;entryX=1;entryY=0.5;entryDx=0;entryDy=0;fontFamily=Architects Daughter;fontSource=https%3A%2F%2Ffonts.googleapis.com%2Fcss%3Ffamily%3DArchitects%2BDaughter;exitX=0.5;exitY=1;exitDx=0;exitDy=0;" edge="1" parent="1" source="fp8gLEPbRJbHIMnl9QE7-9" target="fp8gLEPbRJbHIMnl9QE7-10">
          <mxGeometry relative="1" as="geometry" />
        </mxCell>
        <mxCell id="fp8gLEPbRJbHIMnl9QE7-14" value="&lt;font style=&quot;font-size: 15px;&quot;&gt;&lt;b&gt;测试集&lt;/b&gt;&lt;/font&gt;" style="edgeLabel;html=1;align=center;verticalAlign=middle;resizable=0;points=[];sketch=1;hachureGap=4;jiggle=2;curveFitting=1;fontFamily=Architects Daughter;fontSource=https%3A%2F%2Ffonts.googleapis.com%2Fcss%3Ffamily%3DArchitects%2BDaughter;" vertex="1" connectable="0" parent="fp8gLEPbRJbHIMnl9QE7-13">
          <mxGeometry x="0.1643" y="-3" relative="1" as="geometry">
            <mxPoint as="offset" />
          </mxGeometry>
        </mxCell>
        <mxCell id="fp8gLEPbRJbHIMnl9QE7-9" value="&lt;font style=&quot;font-size: 16px;&quot;&gt;基于公域用户诉求整理高质量测试集&lt;/font&gt;" style="rounded=1;whiteSpace=wrap;html=1;sketch=1;hachureGap=4;jiggle=2;curveFitting=1;fontFamily=Architects Daughter;fontSource=https%3A%2F%2Ffonts.googleapis.com%2Fcss%3Ffamily%3DArchitects%2BDaughter;fillColor=#d5e8d4;strokeColor=#82b366;" vertex="1" parent="1">
          <mxGeometry x="800" y="240" width="160" height="70" as="geometry" />
        </mxCell>
        <mxCell id="fp8gLEPbRJbHIMnl9QE7-16" style="edgeStyle=orthogonalEdgeStyle;rounded=0;sketch=1;hachureGap=4;jiggle=2;curveFitting=1;orthogonalLoop=1;jettySize=auto;html=1;entryX=0.5;entryY=0;entryDx=0;entryDy=0;fontFamily=Architects Daughter;fontSource=https%3A%2F%2Ffonts.googleapis.com%2Fcss%3Ffamily%3DArchitects%2BDaughter;" edge="1" parent="1" source="fp8gLEPbRJbHIMnl9QE7-10" target="fp8gLEPbRJbHIMnl9QE7-15">
          <mxGeometry relative="1" as="geometry" />
        </mxCell>
        <mxCell id="fp8gLEPbRJbHIMnl9QE7-10" value="&lt;span style=&quot;font-size: 16px;&quot;&gt;LLM评测&lt;/span&gt;" style="rounded=1;whiteSpace=wrap;html=1;sketch=1;hachureGap=4;jiggle=2;curveFitting=1;fontFamily=Architects Daughter;fontSource=https%3A%2F%2Ffonts.googleapis.com%2Fcss%3Ffamily%3DArchitects%2BDaughter;fillColor=#ffe6cc;strokeColor=#d79b00;" vertex="1" parent="1">
          <mxGeometry x="610" y="410" width="150" height="60" as="geometry" />
        </mxCell>
        <mxCell id="fp8gLEPbRJbHIMnl9QE7-18" style="edgeStyle=orthogonalEdgeStyle;rounded=0;sketch=1;hachureGap=4;jiggle=2;curveFitting=1;orthogonalLoop=1;jettySize=auto;html=1;entryX=0.5;entryY=0;entryDx=0;entryDy=0;fontFamily=Architects Daughter;fontSource=https%3A%2F%2Ffonts.googleapis.com%2Fcss%3Ffamily%3DArchitects%2BDaughter;" edge="1" parent="1" source="fp8gLEPbRJbHIMnl9QE7-15" target="fp8gLEPbRJbHIMnl9QE7-17">
          <mxGeometry relative="1" as="geometry" />
        </mxCell>
        <mxCell id="fp8gLEPbRJbHIMnl9QE7-15" value="&lt;span style=&quot;font-size: 16px;&quot;&gt;统计出内容没有覆盖到的Query&lt;/span&gt;" style="rounded=1;whiteSpace=wrap;html=1;sketch=1;hachureGap=4;jiggle=2;curveFitting=1;fontFamily=Architects Daughter;fontSource=https%3A%2F%2Ffonts.googleapis.com%2Fcss%3Ffamily%3DArchitects%2BDaughter;fillColor=#ffe6cc;strokeColor=#d79b00;" vertex="1" parent="1">
          <mxGeometry x="610" y="550" width="150" height="60" as="geometry" />
        </mxCell>
        <mxCell id="fp8gLEPbRJbHIMnl9QE7-24" style="edgeStyle=orthogonalEdgeStyle;rounded=0;sketch=1;hachureGap=4;jiggle=2;curveFitting=1;orthogonalLoop=1;jettySize=auto;html=1;entryX=0.5;entryY=1;entryDx=0;entryDy=0;fontFamily=Architects Daughter;fontSource=https%3A%2F%2Ffonts.googleapis.com%2Fcss%3Ffamily%3DArchitects%2BDaughter;" edge="1" parent="1" source="fp8gLEPbRJbHIMnl9QE7-17" target="fp8gLEPbRJbHIMnl9QE7-1">
          <mxGeometry relative="1" as="geometry" />
        </mxCell>
        <mxCell id="fp8gLEPbRJbHIMnl9QE7-17" value="&lt;span style=&quot;font-size: 16px;&quot;&gt;将Query拆解成搜索关键词&lt;/span&gt;" style="rounded=1;whiteSpace=wrap;html=1;sketch=1;hachureGap=4;jiggle=2;curveFitting=1;fontFamily=Architects Daughter;fontSource=https%3A%2F%2Ffonts.googleapis.com%2Fcss%3Ffamily%3DArchitects%2BDaughter;fillColor=#d5e8d4;strokeColor=#82b366;" vertex="1" parent="1">
          <mxGeometry x="610" y="840" width="150" height="60" as="geometry" />
        </mxCell>
        <mxCell id="fp8gLEPbRJbHIMnl9QE7-22" style="edgeStyle=orthogonalEdgeStyle;rounded=0;sketch=1;hachureGap=4;jiggle=2;curveFitting=1;orthogonalLoop=1;jettySize=auto;html=1;fontFamily=Architects Daughter;fontSource=https%3A%2F%2Ffonts.googleapis.com%2Fcss%3Ffamily%3DArchitects%2BDaughter;endArrow=none;endFill=0;startArrow=classic;startFill=1;" edge="1" parent="1" source="fp8gLEPbRJbHIMnl9QE7-21">
          <mxGeometry relative="1" as="geometry">
            <mxPoint x="690" y="730" as="targetPoint" />
          </mxGeometry>
        </mxCell>
        <mxCell id="fp8gLEPbRJbHIMnl9QE7-23" style="edgeStyle=orthogonalEdgeStyle;rounded=0;sketch=1;hachureGap=4;jiggle=2;curveFitting=1;orthogonalLoop=1;jettySize=auto;html=1;entryX=0;entryY=0.75;entryDx=0;entryDy=0;fontFamily=Architects Daughter;fontSource=https%3A%2F%2Ffonts.googleapis.com%2Fcss%3Ffamily%3DArchitects%2BDaughter;exitX=0.5;exitY=0;exitDx=0;exitDy=0;" edge="1" parent="1" source="fp8gLEPbRJbHIMnl9QE7-21" target="fp8gLEPbRJbHIMnl9QE7-5">
          <mxGeometry relative="1" as="geometry">
            <Array as="points">
              <mxPoint x="410" y="350" />
              <mxPoint x="560" y="350" />
              <mxPoint x="560" y="285" />
            </Array>
          </mxGeometry>
        </mxCell>
        <mxCell id="fp8gLEPbRJbHIMnl9QE7-21" value="&lt;span style=&quot;font-size: 16px;&quot;&gt;自动化进行微信AI搜索爬取答案的引用内容源&lt;/span&gt;" style="rounded=1;whiteSpace=wrap;html=1;sketch=1;hachureGap=4;jiggle=2;curveFitting=1;fontFamily=Architects Daughter;fontSource=https%3A%2F%2Ffonts.googleapis.com%2Fcss%3Ffamily%3DArchitects%2BDaughter;fillColor=#d5e8d4;strokeColor=#82b366;" vertex="1" parent="1">
          <mxGeometry x="320" y="680" width="180" height="100" as="geometry" />
        </mxCell>
      </root>
    </mxGraphModel>
  </diagram>
</mxfile>
